# xmcd
#
# Track frame offsets: 
#        150
#        20527
#        41050
#        49605
#        74047
#        106747
#        127316
#        145783
#        163025
#        189118
#        205015
#        221210
#        241701
#        262841
#
# Disc length: 3824 seconds
#
# Revision: 0
# Processed by: cddbd v1.5.2PL0 Copyright (c) Steve Scherf et al.
# Submitted via: ExactAudioCopy v0.95b4
#
DISCID=c80eee0e
DTITLE=Nine Inch Nails - The Fragile Complete (Left) (Fan Disc)
DYEAR=1900
DGENRE=Acoustic
TTITLE0=Somewhat Damaged
TTITLE1=The Day the World Went Away
TTITLE2=Frail
TTITLE3=Wretched
TTITLE4=We're in This Together
TTITLE5=Fragile
TTITLE6=Deep*
TTITLE7=Just Like You Imagined
TTITLE8=Even Deeper
TTITLE9=Pilgrimage
TTITLE10=No, You Dont
TTITLE11=La Mer
TTITLE12=Great Collapse*
TTITLE13=Great Below
EXTD=
EXTT0=
EXTT1=
EXTT2=
EXTT3=
EXTT4=
EXTT5=
EXTT6=
EXTT7=
EXTT8=
EXTT9=
EXTT10=
EXTT11=
EXTT12=
EXTT13=
PLAYORDER=
